ffmpeg version 3.4.6-0ubuntu0.18.04.1 Copyright (c) 2000-2019 the FFmpeg developers
  built with gcc 7 (Ubuntu 7.3.0-16ubuntu3)
  configuration: --prefix=/usr --extra-version=0ubuntu0.18.04.1 --toolchain=hardened --libdir=/usr/lib/x86_64-linux-gnu --incdir=/usr/include/x86_64-linux-gnu --enable-gpl --disable-stripping --enable-avresample --enable-avisynth --enable-gnutls --enable-ladspa --enable-libass --enable-libbluray --enable-libbs2b --enable-libcaca --enable-libcdio --enable-libflite --enable-libfontconfig --enable-libfreetype --enable-libfribidi --enable-libgme --enable-libgsm --enable-libmp3lame --enable-libmysofa --enable-libopenjpeg --enable-libopenmpt --enable-libopus --enable-libpulse --enable-librubberband --enable-librsvg --enable-libshine --enable-libsnappy --enable-libsoxr --enable-libspeex --enable-libssh --enable-libtheora --enable-libtwolame --enable-libvorbis --enable-libvpx --enable-libwavpack --enable-libwebp --enable-libx265 --enable-libxml2 --enable-libxvid --enable-libzmq --enable-libzvbi --enable-omx --enable-openal --enable-opengl --enable-sdl2 --enable-libdc1394 --enable-libdrm --enable-libiec61883 --enable-chromaprint --enable-frei0r --enable-libopencv --enable-libx264 --enable-shared
  libavutil      55. 78.100 / 55. 78.100
  libavcodec     57.107.100 / 57.107.100
  libavformat    57. 83.100 / 57. 83.100
  libavdevice    57. 10.100 / 57. 10.100
  libavfilter     6.107.100 /  6.107.100
  libavresample   3.  7.  0 /  3.  7.  0
  libswscale      4.  8.100 /  4.  8.100
  libswresample   2.  9.100 /  2.  9.100
  libpostproc    54.  7.100 / 54.  7.100
Input #0, image2pipe, from 'pipe:':
  Duration: N/A, bitrate: N/A
    Stream #0:0: Video: ppm, rgb24, 320x240, 20 fps, 20 tbr, 20 tbn, 20 tbc
Stream mapping:
  Stream #0:0 -> #0:0 (ppm (native) -> h264 (libx264))
[libx264 @ 0x55d0f8cf5f40] using cpu capabilities: MMX2 SSE2Fast SSSE3 SSE4.2 AVX FMA3 BMI2 AVX2
[libx264 @ 0x55d0f8cf5f40] profile High, level 1.3
[libx264 @ 0x55d0f8cf5f40] 264 - core 152 r2854 e9a5903 - H.264/MPEG-4 AVC codec - Copyleft 2003-2017 - http://www.videolan.org/x264.html - options: cabac=1 ref=3 deblock=1:0:0 analyse=0x3:0x113 me=hex subme=7 psy=1 psy_rd=1.00:0.00 mixed_ref=1 me_range=16 chroma_me=1 trellis=1 8x8dct=1 cqm=0 deadzone=21,11 fast_pskip=1 chroma_qp_offset=-2 threads=1 lookahead_threads=1 sliced_threads=0 nr=0 decimate=1 interlaced=0 bluray_compat=0 constrained_intra=0 bframes=3 b_pyramid=2 b_adapt=1 b_bias=0 direct=1 weightb=1 open_gop=0 weightp=2 keyint=250 keyint_min=20 scenecut=40 intra_refresh=0 rc_lookahead=40 rc=abr mbtree=1 bitrate=400 ratetol=1.0 qcomp=0.60 qpmin=0 qpmax=69 qpstep=4 ip_ratio=1.40 aq=1:1.00
Output #0, mp4, to './mission_records/e4ada9a2-9d07-4ebe-af78-0b8615e37f0f/video.mp4':
  Metadata:
    encoder         : Lavf57.83.100
    Stream #0:0: Video: h264 (libx264) (avc1 / 0x31637661), yuv420p, 320x240, q=-1--1, 400 kb/s, 20 fps, 10240 tbn, 20 tbc
    Metadata:
      encoder         : Lavc57.107.100 libx264
    Side data:
      cpb: bitrate max/min/avg: 0/0/400000 buffer size: 0 vbv_delay: -1
frame=   32 fps=0.0 q=0.0 size=       0kB time=00:00:00.00 bitrate=N/A speed=   0x    frame=   41 fps= 40 q=0.0 size=       0kB time=00:00:00.00 bitrate=N/A speed=   0x    frame=   50 fps= 32 q=24.0 size=       0kB time=00:00:00.30 bitrate=   1.3kbits/s speed=0.194x    frame=   59 fps= 28 q=19.0 size=       0kB time=00:00:00.75 bitrate=   0.5kbits/s speed=0.361x    frame=   68 fps= 26 q=20.0 size=       0kB time=00:00:01.20 bitrate=   0.3kbits/s speed=0.464x    frame=   77 fps= 25 q=20.0 size=       0kB time=00:00:01.65 bitrate=   0.2kbits/s speed=0.528x    Error while decoding stream #0:0: Invalid data found when processing input
frame=   79 fps= 21 q=20.0 Lsize=     196kB time=00:00:03.80 bitrate= 422.9kbits/s speed=0.998x    
video:195kB audio:0kB subtitle:0kB other streams:0kB global headers:0kB muxing overhead: 0.624195%
[libx264 @ 0x55d0f8cf5f40] frame I:1     Avg QP:19.98  size:   654
[libx264 @ 0x55d0f8cf5f40] frame P:71    Avg QP:13.91  size:  2736
[libx264 @ 0x55d0f8cf5f40] frame B:7     Avg QP:18.45  size:   575
[libx264 @ 0x55d0f8cf5f40] consecutive B-frames: 87.3%  2.5%  0.0% 10.1%
[libx264 @ 0x55d0f8cf5f40] mb I  I16..4: 70.3% 25.7%  4.0%
[libx264 @ 0x55d0f8cf5f40] mb P  I16..4:  8.8% 22.4%  4.1%  P16..4: 28.6%  8.6%  7.9%  0.0%  0.0%    skip:19.6%
[libx264 @ 0x55d0f8cf5f40] mb B  I16..4:  5.3%  1.2%  0.0%  B16..8: 37.0%  5.5%  0.4%  direct: 7.6%  skip:43.0%  L0:33.3% L1:62.3% BI: 4.4%
[libx264 @ 0x55d0f8cf5f40] final ratefactor: 15.73
[libx264 @ 0x55d0f8cf5f40] 8x8 transform intra:61.1% inter:71.4%
[libx264 @ 0x55d0f8cf5f40] coded y,uvDC,uvAC intra: 52.1% 15.7% 12.6% inter: 22.3% 5.1% 1.0%
[libx264 @ 0x55d0f8cf5f40] i16 v,h,dc,p: 29% 38% 29%  4%
[libx264 @ 0x55d0f8cf5f40] i8 v,h,dc,ddl,ddr,vr,hd,vl,hu:  6% 13% 64%  2%  3%  2%  4%  2%  4%
[libx264 @ 0x55d0f8cf5f40] i4 v,h,dc,ddl,ddr,vr,hd,vl,hu: 16% 24% 58%  0%  0%  0%  1%  0%  1%
[libx264 @ 0x55d0f8cf5f40] i8c dc,h,v,p: 75% 23%  1%  1%
[libx264 @ 0x55d0f8cf5f40] Weighted P-Frames: Y:0.0% UV:0.0%
[libx264 @ 0x55d0f8cf5f40] ref P L0: 58.7%  1.1% 26.6% 13.6%
[libx264 @ 0x55d0f8cf5f40] ref B L0: 93.2%  6.8%
[libx264 @ 0x55d0f8cf5f40] ref B L1: 96.1%  3.9%
[libx264 @ 0x55d0f8cf5f40] kb/s:402.86
